<?xml version="1.0" encoding="UTF-8"?>
<svg width="10px" height="10px" viewBox="0 0 10 10" version="1.1" xmlns="http://www.w3.org/2000/svg" xmlns:xlink="http://www.w3.org/1999/xlink">
    <!-- Generator: Sketch 53 (72520) - https://sketchapp.com -->
    <title>1D</title>
    <desc>Created with Sketch.</desc>
    <g id="white" stroke="none" stroke-width="1" fill="none" fill-rule="evenodd">
        <g id="01" transform="translate(-1821.000000, -152.000000)" fill="#3FA2F7" stroke="#3FA2F7" stroke-width="0.6">
            <path d="M1823.2349,153.32215 C1823.16696,153.32215 1823.10615,153.337216 1823.05437,153.366527 C1822.90645,153.451173 1822.8218,153.661281 1822.8218,153.942337 L1822.8218,159.626475 C1822.8218,159.889452 1822.89522,160.091068 1823.01794,160.165852 C1823.12888,160.233788 1823.30886,160.211873 1823.51212,160.106134 L1828.66592,157.073133 C1828.83959,156.958355 1828.94341,156.789337 1828.93355,156.620046 C1828.92342,156.448015 1828.79659,156.288311 1828.58538,156.182572 L1823.6384,153.45309 C1823.4902,153.365979 1823.35214,153.32215 1823.2349,153.32215 Z M1823.16641,161.02628 C1822.9585,161.02628 1822.76428,160.973411 1822.59115,160.867946 C1822.20983,160.636471 1822,160.195437 1822,159.626475 L1822,153.942337 C1822,153.358035 1822.23531,152.888238 1822.64621,152.653476 C1823.04972,152.422275 1823.55951,152.453504 1824.04492,152.738943 L1828.96807,155.455277 C1829.42773,155.685655 1829.72687,156.105871 1829.75399,156.572381 C1829.78111,157.035604 1829.53648,157.483761 1829.09983,157.770844 L1823.9096,160.825212 C1823.65073,160.959714 1823.3998,161.02628 1823.16641,161.02628 L1823.16641,161.02628 Z" id="1D"></path>
        </g>
    </g>
</svg>