<?xml version="1.0" encoding="UTF-8"?>
<svg width="47px" height="36px" viewBox="0 0 47 36" version="1.1" xmlns="http://www.w3.org/2000/svg" xmlns:xlink="http://www.w3.org/1999/xlink">
    <!-- Generator: Sketch 53 (72520) - https://sketchapp.com -->
    <title>分组 5</title>
    <desc>Created with Sketch.</desc>
    <g id="dark_3" stroke="none" stroke-width="1" fill="none" fill-rule="evenodd">
        <g id="01-copy" transform="translate(-494.000000, -905.000000)" fill="#42E3E1">
            <g id="分组-5" transform="translate(494.000000, 904.772079)">
                <path d="M17.5697444,28.1671823 L29.0602614,19.0129474 C29.1845454,18.9139331 29.2965863,18.80046 29.3940141,18.6749285 C30.0712538,17.8023345 29.9128879,16.5459462 29.0402939,15.8687065 L17.5697444,6.96615662 L17.5697444,2.5 C17.5697444,1.3954305 18.4651749,0.5 19.5697444,0.5 L44.5697444,0.5 C45.6743139,0.5 46.5697444,1.3954305 46.5697444,2.5 L46.5697444,33.5 C46.5697444,34.6045695 45.6743139,35.5 44.5697444,35.5 L19.5697444,35.5 C18.4651749,35.5 17.5697444,34.6045695 17.5697444,33.5 L17.5697444,28.1671823 Z" id="合并形状"></path>
                <path d="M24.6794617,18.2483878 L14.2793279,26.5339392 C13.8473667,26.8780729 13.2182176,26.8068746 12.8740839,26.3749135 C12.7342498,26.1993918 12.6575193,25.9819366 12.6562351,25.7575267 L12.5622121,9.32722573 C12.5590517,8.77495003 13.0041976,8.32468008 13.5564733,8.32151966 C13.7804527,8.32023793 13.9983778,8.39418801 14.1753212,8.53151773 L24.669478,16.6762674 C25.105775,17.0148872 25.1849579,17.6430814 24.8463381,18.0793784 C24.7976242,18.1421442 24.7416037,18.1988807 24.6794617,18.2483878 Z" id="三角形"></path>
                <rect id="矩形" x="4.97379915e-14" y="12.8928448" width="16.5741488" height="9.19642086" rx="2"></rect>
            </g>
        </g>
    </g>
</svg>