<?xml version="1.0" encoding="UTF-8"?>
<svg width="36px" height="40px" viewBox="0 0 36 40" version="1.1" xmlns="http://www.w3.org/2000/svg" xmlns:xlink="http://www.w3.org/1999/xlink">
    <!-- Generator: Sketch 53 (72520) - https://sketchapp.com -->
    <title>分组 9</title>
    <desc>Created with Sketch.</desc>
    <g id="dark_3" stroke="none" stroke-width="1" fill="none" fill-rule="evenodd">
        <g id="01-copy" transform="translate(-820.000000, -542.000000)" fill="#42E3E1">
            <g id="分组-9" transform="translate(820.530468, 542.000000)">
                <path d="M16.0521621,16.7347112 L11.4444539,16.7347112 C10.7401243,16.7347112 10.1691524,17.3056831 10.1691524,18.0100127 C10.1691524,18.7143422 10.7401243,19.2853141 11.4444539,19.2853141 L16.0521621,19.2853141 L16.0521621,23.8930224 C16.0521621,24.5973519 16.623134,25.1683238 17.3274636,25.1683238 C18.0317931,25.1683238 18.602765,24.5973519 18.602765,23.8930224 L18.602765,19.2853141 L23.2104733,19.2853141 C23.9148028,19.2853141 24.4857747,18.7143422 24.4857747,18.0100127 C24.4857747,17.3056831 23.9148028,16.7347112 23.2104733,16.7347112 L18.602765,16.7347112 L18.602765,12.1270029 C18.602765,11.4226734 18.0317931,10.8517015 17.3274636,10.8517015 C16.623134,10.8517015 16.0521621,11.4226734 16.0521621,12.1270029 L16.0521621,16.7347112 Z M1.96601044,1.74023756 C7.11423987,0.580079186 12.2624693,3.11574996e-13 17.4106987,3.10862447e-13 C22.5589304,3.10862447e-13 27.7071621,0.580079695 32.8553938,1.74023909 C34.0048744,1.99928008 34.8213975,3.02028351 34.8213975,4.19859072 L34.8213975,18.1589625 C34.8213975,24.1380181 31.7927082,29.7100795 26.775268,32.9619098 L16.9120698,39.3543021 L7.65806475,33.003071 C2.86462828,29.7132282 -3.48151534e-14,24.2727658 -3.55271368e-14,18.4589805 L1.05339062e-05,4.19857897 C1.05339062e-05,3.02027461 0.816531674,1.99927368 1.96601044,1.74023756 Z" id="合并形状"></path>
            </g>
        </g>
    </g>
</svg>