<?xml version="1.0" encoding="UTF-8"?>
<svg width="15px" height="17px" viewBox="0 0 15 17" version="1.1" xmlns="http://www.w3.org/2000/svg" xmlns:xlink="http://www.w3.org/1999/xlink">
    <!-- Generator: Sketch 53 (72520) - https://sketchapp.com -->
    <title>分组 11</title>
    <desc>Created with Sketch.</desc>
    <g id="页面-1" stroke="none" stroke-width="1" fill="none" fill-rule="evenodd">
        <g id="01" transform="translate(-415.000000, -200.000000)">
            <g id="分组-9" transform="translate(19.000000, 124.500000)">
                <g id="分组-7" transform="translate(376.000000, 57.500000)">
                    <g id="分组-11" transform="translate(20.500000, 18.523681)">
                        <path d="M0.780152573,0.690572781 C2.82310419,0.230190927 4.86605581,-1.49359881e-15 6.90900743,-1.77635684e-15 C8.95196003,-1.77635684e-15 10.9949126,0.230191147 13.0378652,0.690573441 L13.0378626,0.690585013 C13.4940013,0.79337651 13.8180149,1.1985324 13.8180149,1.66610972 L13.8180149,7.20593749 C13.8180149,9.57857863 12.616154,11.7897141 10.6251063,13.0801229 L6.7111388,15.6167865 L3.03891458,13.0964568 C1.13675726,11.7909636 1.1707115e-15,9.63204992 8.8817842e-16,7.32499228 L-4.10712617e-05,1.66614915 C-4.10712617e-05,1.19854703 0.323989734,0.793369681 0.780152573,0.690572781 Z" id="矩形" fill="#4A4A4A"></path>
                        <g id="分组-2" transform="translate(3.909007, 4.036376)" stroke="#FAFAFA" stroke-linecap="round">
                            <path d="M0.676788025,3.17678802 L5.32321198,3.17678802" id="直线-4"></path>
                            <path d="M0.5,3 L5.14642395,3" id="直线-4" transform="translate(3.000000, 3.000000) rotate(-90.000000) translate(-3.000000, -3.000000) "></path>
                        </g>
                    </g>
                </g>
            </g>
        </g>
    </g>
</svg>