<?xml version="1.0" encoding="UTF-8"?>
<svg width="34px" height="41px" viewBox="0 0 34 41" version="1.1" xmlns="http://www.w3.org/2000/svg" xmlns:xlink="http://www.w3.org/1999/xlink">
    <!-- Generator: Sketch 53 (72520) - https://sketchapp.com -->
    <title>分组 4</title>
    <desc>Created with Sketch.</desc>
    <g id="dark_3" stroke="none" stroke-width="1" fill="none" fill-rule="evenodd">
        <g id="01-copy" transform="translate(-1351.000000, -721.000000)">
            <g id="分组-4" transform="translate(1350.810186, 723.391739)">
                <path d="M3.41664604,14.210961 L31.366646,14.210961 C32.8163935,14.210961 33.991646,15.3862135 33.991646,16.835961 L33.991646,35.885961 C33.991646,37.3357084 32.8163935,38.510961 31.366646,38.510961 L3.41664604,38.510961 C1.96689857,38.510961 0.791646042,37.3357084 0.791646042,35.885961 L0.791646042,16.835961 C0.791646042,15.3862135 1.96689857,14.210961 3.41664604,14.210961 Z M17.3432884,22.5170603 C15.893541,22.5170603 14.7182884,23.6923129 14.7182884,25.1420603 L14.7182884,30.5546608 C14.7182884,32.0044082 15.893541,33.1796608 17.3432884,33.1796608 L17.4400037,33.1796608 C18.8897511,33.1796608 20.0650037,32.0044082 20.0650037,30.5546608 L20.0650037,25.1420603 C20.0650037,23.6923129 18.8897511,22.5170603 17.4400037,22.5170603 L17.3432884,22.5170603 Z" id="合并形状" fill="#42E3E1"></path>
                <path d="M27.6295958,18.879873 L27.6295958,10.0740879 C27.6295958,4.5103228 23.0459096,0 17.391646,0 C11.7373825,0 7.15369625,4.5103228 7.15369625,10.0740879 L7.15369625,18.879873" id="路径" stroke="#42E3E1" stroke-width="3.9375"></path>
            </g>
        </g>
    </g>
</svg>