<?xml version="1.0" encoding="UTF-8"?>
<svg width="33px" height="42px" viewBox="0 0 33 42" version="1.1" xmlns="http://www.w3.org/2000/svg" xmlns:xlink="http://www.w3.org/1999/xlink">
    <!-- Generator: Sketch 53 (72520) - https://sketchapp.com -->
    <title>分组 4 copy</title>
    <desc>Created with Sketch.</desc>
    <g id="dark_3" stroke="none" stroke-width="1" fill="none" fill-rule="evenodd">
        <g id="01-copy" transform="translate(-1569.000000, -612.000000)">
            <g id="分组-4-copy" transform="translate(1569.000000, 610.064387)">
                <path d="M2.625,19.7011788 L29.9744546,19.7011788 C31.4242021,19.7011788 32.5994546,20.8764313 32.5994546,22.3261788 L32.5994546,41.0056134 C32.5994546,42.4553609 31.4242021,43.6306134 29.9744546,43.6306134 L2.625,43.6306134 C1.17525253,43.6306134 9.29921877e-14,42.4553609 9.28146449e-14,41.0056134 L9.28146449e-14,22.3261788 C9.2637102e-14,20.8764313 1.17525253,19.7011788 2.625,19.7011788 Z M16.2997273,27.8806134 C14.8499798,27.8806134 13.6747273,29.055866 13.6747273,30.5056134 L13.6747273,35.7556134 C13.6747273,37.2053609 14.8499798,38.3806134 16.2997273,38.3806134 C17.7494748,38.3806134 18.9247273,37.2053609 18.9247273,35.7556134 L18.9247273,30.5056134 C18.9247273,29.055866 17.7494748,27.8806134 16.2997273,27.8806134 Z" id="合并形状" fill="#42E3E1"></path>
                <path d="M21.3801973,20.9414778 L21.3801973,13.137288 C21.3801973,8.20636155 17.3178728,4.20905585 12.3067414,4.20905585 C7.29561009,4.20905585 3.2332855,8.20636155 3.2332855,13.137288 L3.2332855,20.9414778" id="路径" stroke="#42E3E1" stroke-width="3.9375" stroke-linecap="round" transform="translate(12.306741, 12.575267) rotate(-47.000000) translate(-12.306741, -12.575267) "></path>
            </g>
        </g>
    </g>
</svg>