<?xml version="1.0" encoding="UTF-8"?>
<svg width="50px" height="33px" viewBox="0 0 50 33" version="1.1" xmlns="http://www.w3.org/2000/svg" xmlns:xlink="http://www.w3.org/1999/xlink">
    <!-- Generator: Sketch 53 (72520) - https://sketchapp.com -->
    <title>分组</title>
    <desc>Created with Sketch.</desc>
    <g id="dark_3" stroke="none" stroke-width="1" fill="none" fill-rule="evenodd">
        <g id="01-copy" transform="translate(-813.000000, -723.000000)" fill="#42E3E1">
            <g id="分组" transform="translate(813.333750, 723.000000)">
                <path d="M49.1388508,22.3779972 L1.98951966e-13,22.3779972 L3.97903932e-13,18.75 C3.97565755e-13,15.9885763 2.23857625,13.75 5,13.75 L44.1388508,13.75 C46.9002745,13.75 49.1388508,15.9885763 49.1388508,18.75 L49.1388508,22.3779972 Z M49.1388508,24.7064593 L49.1388508,27.5 C49.1388508,30.2614237 46.9002745,32.5 44.1388508,32.5 L5,32.5 C2.23857625,32.5 3.99468427e-13,30.2614237 3.97903932e-13,27.5 L3.97903932e-13,24.7064593 L49.1388508,24.7064593 Z M28.0179615,30.5968922 C29.048758,30.5968922 29.8843837,29.7612665 29.8843837,28.73047 C29.8843837,27.6996735 29.048758,26.8640478 28.0179615,26.8640478 C26.987165,26.8640478 26.1515393,27.6996735 26.1515393,28.73047 C26.1515393,29.7612665 26.987165,30.5968922 28.0179615,30.5968922 Z M34.8681405,30.5968922 C35.8989371,30.5968922 36.7345627,29.7612665 36.7345627,28.73047 C36.7345627,27.6996735 35.8989371,26.8640478 34.8681405,26.8640478 C33.837344,26.8640478 33.0017184,27.6996735 33.0017184,28.73047 C33.0017184,29.7612665 33.837344,30.5968922 34.8681405,30.5968922 Z M41.7183196,30.5968922 C42.7491161,30.5968922 43.5847418,29.7612665 43.5847418,28.73047 C43.5847418,27.6996735 42.7491161,26.8640478 41.7183196,26.8640478 C40.6875231,26.8640478 39.8518974,27.6996735 39.8518974,28.73047 C39.8518974,29.7612665 40.6875231,30.5968922 41.7183196,30.5968922 Z" id="合并形状"></path>
                <rect id="矩形" x="36.6388508" y="0" width="5" height="17.5" rx="2.5"></rect>
                <rect id="矩形" x="7.49534432" y="0" width="5" height="17.5" rx="2.5"></rect>
            </g>
        </g>
    </g>
</svg>