<?xml version="1.0" encoding="UTF-8"?>
<svg width="59px" height="63px" viewBox="0 0 59 63" version="1.1" xmlns="http://www.w3.org/2000/svg" xmlns:xlink="http://www.w3.org/1999/xlink">
    <!-- Generator: Sketch 53 (72520) - https://sketchapp.com -->
    <title>3F</title>
    <desc>Created with Sketch.</desc>
    <defs>
        <filter x="-10.2%" y="-9.7%" width="120.4%" height="119.3%" filterUnits="objectBoundingBox" id="filter-1">
            <feOffset dx="0" dy="0" in="SourceAlpha" result="shadowOffsetOuter1"></feOffset>
            <feGaussianBlur stdDeviation="10" in="shadowOffsetOuter1" result="shadowBlurOuter1"></feGaussianBlur>
            <feColorMatrix values="0 0 0 0 0   0 0 0 0 0   0 0 0 0 0  0 0 0 0.5 0" type="matrix" in="shadowBlurOuter1" result="shadowMatrixOuter1"></feColorMatrix>
            <feMerge>
                <feMergeNode in="shadowMatrixOuter1"></feMergeNode>
                <feMergeNode in="SourceGraphic"></feMergeNode>
            </feMerge>
        </filter>
    </defs>
    <g id="dark_1" stroke="none" stroke-width="1" fill="none" fill-rule="evenodd">
        <g id="00" transform="translate(-245.000000, -537.000000)" fill="#93D4D5">
            <g id="分组-5" filter="url(#filter-1)" transform="translate(180.000000, 270.000000)">
                <path d="M93.8091018,303.542058 L93.8091018,304.467302 C93.8091018,304.898736 94.190773,305.247002 94.6623161,305.247002 C95.1332904,305.247002 95.5155304,304.898736 95.5155304,304.467302 L95.5155304,303.53686 C96.0382663,303.261366 96.3954787,302.751963 96.3954787,302.164589 C96.3954787,301.291325 95.6179161,300.579199 94.6623161,300.579199 C93.7061473,300.579199 92.9285847,301.291325 92.9285847,302.164589 C92.9285847,302.741567 93.2698704,303.261366 93.8091018,303.542058 M102.590383,306.925955 C102.590383,307.113083 102.542603,308.781641 100.885092,308.844017 C98.4113397,308.932383 88.5771918,308.854413 88.4548978,308.849215 C88.3030256,308.849215 86.9708737,308.781641 86.7166159,306.603679 L86.7166159,297.569558 L102.590383,297.569558 L102.590383,306.925955 Z M94.6281875,288.114399 C99.4204078,288.114399 99.6951428,291.7478 99.7105006,292.13765 L99.7105006,296.010159 L89.5464432,296.010159 L89.5458744,292.350768 C89.5509937,292.174036 89.7159485,288.114399 94.6281875,288.114399 Z M103.443598,296.010159 L101.416929,296.010159 L101.41636,292.116858 C101.362892,290.193599 99.8748866,286.555 94.6281875,286.555 C89.3809197,286.555 87.8934828,290.318351 87.8400147,292.329976 L87.8400147,296.010159 L85.8634016,296.010159 C85.3924273,296.010159 85.0101873,296.358425 85.0101873,296.789859 L85.0101873,306.645263 C85.0101873,306.671253 85.0118937,306.697243 85.0147378,306.723233 C85.3440785,309.722478 87.4458297,310.465792 88.4617235,310.408614 C88.7205318,310.413812 92.6874094,310.445 96.1878632,310.445 C98.189504,310.445 100.039273,310.434604 100.954487,310.403416 C103.597745,310.304654 104.296812,308.085109 104.296812,306.925955 L104.296812,296.789859 C104.296812,296.358425 103.914572,296.010159 103.443598,296.010159 L103.443598,296.010159 Z" id="3F"></path>
            </g>
        </g>
    </g>
</svg>