<?xml version="1.0" encoding="UTF-8"?>
<svg width="46px" height="36px" viewBox="0 0 46 36" version="1.1" xmlns="http://www.w3.org/2000/svg" xmlns:xlink="http://www.w3.org/1999/xlink">
    <!-- Generator: Sketch 53 (72520) - https://sketchapp.com -->
    <title>分组 11</title>
    <desc>Created with Sketch.</desc>
    <g id="dark_3" stroke="none" stroke-width="1" fill="none" fill-rule="evenodd">
        <g id="01-copy" transform="translate(-1834.000000, -905.000000)" fill="#42E3E1">
            <g id="分组-11" transform="translate(1834.569744, 905.272079)">
                <path d="M29,9.96668473 L18.6890585,9.96668473 C17.584489,9.96668473 16.6890585,10.8621152 16.6890585,11.9666847 L16.6890585,22.0154256 C16.6890585,23.1199951 17.584489,24.0154256 18.6890585,24.0154256 L29,24.0154256 L29,33 C29,34.1045695 28.1045695,35 27,35 L2,35 C0.8954305,35 1.3527075e-16,34.1045695 0,33 L0,2 C-1.3527075e-16,0.8954305 0.8954305,2.02906125e-16 2,0 L27,0 C28.1045695,-2.02906125e-16 29,0.8954305 29,2 L29,9.96668473 Z" id="合并形状"></path>
                <path d="M44.1097173,17.7483878 L33.7095835,26.0339392 C33.2776223,26.3780729 32.6484731,26.3068746 32.3043394,25.8749135 C32.1645053,25.6993918 32.0877749,25.4819366 32.0864907,25.2575267 L31.9924677,8.82722573 C31.9893073,8.27495003 32.4344531,7.82468008 32.9867289,7.82151966 C33.2107082,7.82023793 33.4286334,7.89418801 33.6055767,8.03151773 L44.0997335,16.1762674 C44.5360305,16.5148872 44.6152135,17.1430814 44.2765937,17.5793784 C44.2278798,17.6421442 44.1718593,17.6988807 44.1097173,17.7483878 Z" id="三角形"></path>
                <rect id="矩形" x="19.4302556" y="12.3928448" width="16.5" height="9.19642086" rx="2"></rect>
            </g>
        </g>
    </g>
</svg>