<?xml version="1.0" encoding="UTF-8"?>
<svg width="60px" height="62px" viewBox="0 0 60 62" version="1.1" xmlns="http://www.w3.org/2000/svg" xmlns:xlink="http://www.w3.org/1999/xlink">
    <!-- Generator: Sketch 53 (72520) - https://sketchapp.com -->
    <title>4F</title>
    <desc>Created with Sketch.</desc>
    <defs>
        <filter x="-10.2%" y="-9.7%" width="120.4%" height="119.3%" filterUnits="objectBoundingBox" id="filter-1">
            <feOffset dx="0" dy="0" in="SourceAlpha" result="shadowOffsetOuter1"></feOffset>
            <feGaussianBlur stdDeviation="10" in="shadowOffsetOuter1" result="shadowBlurOuter1"></feGaussianBlur>
            <feColorMatrix values="0 0 0 0 0   0 0 0 0 0   0 0 0 0 0  0 0 0 0.5 0" type="matrix" in="shadowBlurOuter1" result="shadowMatrixOuter1"></feColorMatrix>
            <feMerge>
                <feMergeNode in="shadowMatrixOuter1"></feMergeNode>
                <feMergeNode in="SourceGraphic"></feMergeNode>
            </feMerge>
        </filter>
    </defs>
    <g id="dark_1" stroke="none" stroke-width="1" fill="none" fill-rule="evenodd">
        <g id="00" transform="translate(-245.000000, -451.000000)" fill="#93D4D5">
            <g id="分组-5" filter="url(#filter-1)" transform="translate(180.000000, 270.000000)">
                <path d="M94.6534996,201.41318 C96.6813933,201.41318 98.331457,203.06696 98.331457,205.092376 C98.331457,207.123986 96.6813933,208.771572 94.6534996,208.771572 C92.6256059,208.771572 90.9761615,207.123986 90.9761615,205.092376 C90.9761615,203.06696 92.6256059,201.41318 94.6534996,201.41318 Z M94.6534996,210.629752 C97.7058698,210.629752 100.189637,208.145985 100.189637,205.092376 C100.189637,202.038767 97.7058698,199.555 94.6534996,199.555 C91.6011293,199.555 89.1179815,202.038767 89.1179815,205.092376 C89.1179815,208.145985 91.6011293,210.629752 94.6534996,210.629752 L94.6534996,210.629752 Z M103.428445,221.58682 L85.8785545,221.58682 L85.8785545,217.275843 C85.8785545,216.18571 86.3053165,215.120354 87.0200964,214.420439 C87.3855384,214.061191 87.9875887,213.627616 88.8466873,213.652392 C89.3205231,213.66478 90.7884853,213.646198 92.5735768,213.640004 C95.2406844,213.627616 98.6046095,213.609034 100.345105,213.609034 C102.46343,213.609034 103.428445,215.337142 103.428445,216.94137 L103.428445,221.58682 Z M100.345105,211.750854 C98.6027513,211.750854 95.2351099,211.769436 92.5649053,211.781824 C90.792821,211.788018 89.3291947,211.794212 88.8720824,211.794212 C88.8702242,211.794212 88.8677466,211.794212 88.8652691,211.794212 C87.7144363,211.77563 86.5945732,212.233981 85.718751,213.094938 C84.6552527,214.135519 84.0203746,215.69639 84.0203746,217.275843 L84.0203746,222.51591 C84.0203746,223.023813 84.4359875,223.445 84.9494646,223.445 L104.357535,223.445 C104.870392,223.445 105.286625,223.023813 105.286625,222.51591 L105.286625,216.94137 C105.286625,214.426633 103.554801,211.750854 100.345105,211.750854 L100.345105,211.750854 Z" id="4F"></path>
            </g>
        </g>
    </g>
</svg>