<?xml version="1.0" encoding="UTF-8"?>
<svg width="12px" height="16px" viewBox="0 0 12 16" version="1.1" xmlns="http://www.w3.org/2000/svg" xmlns:xlink="http://www.w3.org/1999/xlink">
    <!-- Generator: Sketch 53 (72520) - https://sketchapp.com -->
    <title>分组 3</title>
    <desc>Created with Sketch.</desc>
    <defs>
        <linearGradient x1="37.1132279%" y1="0%" x2="67.0288797%" y2="92.0627957%" id="linearGradient-1">
            <stop stop-color="#61E2FA" offset="0%"></stop>
            <stop stop-color="#5E77FF" offset="100%"></stop>
        </linearGradient>
    </defs>
    <g id="页面-1" stroke="none" stroke-width="1" fill="none" fill-rule="evenodd">
        <g id="01_1_3" transform="translate(-20.000000, -20.000000)">
            <g id="分组-3" transform="translate(20.003027, 20.966807)">
                <path d="M1.78968245,1.68411782 C2.04029164,1.42219619 2.23539844,1.08656533 2.37500287,0.677225226 L2.37500339,0.677225404 C2.51312001,0.272247759 2.89359093,1.70747814e-05 3.32147303,1.70747814e-05 L8.0724881,1.8810559e-05 C8.5005212,1.8810559e-05 8.88109114,0.272438908 9.01908956,0.677616363 C9.14217877,1.03901888 9.37145182,1.37451936 9.7069087,1.68411782 C10.0079369,1.96194152 10.458861,2.20320025 11.0596811,2.40789402 L11.0596768,2.40790657 C11.4648047,2.54592987 11.7371791,2.92647313 11.7371791,3.35446734 L11.7371791,7.83743029 C11.7371791,9.54563876 10.8651091,11.1356375 9.42462755,12.0537819 L5.83401941,14.3423895 L2.29001931,12.0567185 C0.862460802,11.1360275 8.20163702e-15,9.55351763 7.99360578e-15,7.85481365 L4.19666897e-05,3.39522735 C4.19666897e-05,2.98717361 0.247982087,2.62005448 0.626502966,2.46764122 C1.07493033,2.28707977 1.46265683,2.02590531 1.78968245,1.68411782 Z" id="路径" fill="url(#linearGradient-1)"></path>
                <path d="M9.8919069,5.53319342 C9.88692162,7.48683829 9.85855995,8.55194262 9.80682189,8.72850643 C9.71961873,9.40910483 9.02181957,10.2346362 8.25549912,10.5773505" id="路径-3" stroke="#FFFFFF" stroke-linecap="round" stroke-linejoin="round"></path>
                <circle id="椭圆形" fill="#FFFFFF" cx="9.8625053" cy="4.05601787" r="1"></circle>
            </g>
        </g>
    </g>
</svg>